<?xml version="1.0" standalone="no"?>
<!DOCTYPE svg PUBLIC "-//W3C//DTD SVG 20010904//EN"
 "http://www.w3.org/TR/2001/REC-SVG-20010904/DTD/svg10.dtd">
<svg version="1.0" xmlns="http://www.w3.org/2000/svg"
 width="810.000000pt" height="810.000000pt" viewBox="0 0 810.000000 810.000000"
 preserveAspectRatio="xMidYMid meet">
<metadata>
Created by potrace 1.14, written by Peter Selinger 2001-2017
</metadata>
<g transform="translate(0.000000,810.000000) scale(0.100000,-0.100000)"
fill="#000000" stroke="none">
<path d="M3249 8042 c0 -31 0 -218 0 -415 l-1 -358 1460 -1460 c803 -803 1457
-1461 1453 -1462 -6 -3 -2294 -1 -2316 2 -7 1 -10 256 -10 752 l0 752 -289
288 c-160 159 -292 287 -294 284 -2 -2 -4 -1127 -4 -2499 0 -1373 -2 -2496 -5
-2496 -2 0 -527 523 -1166 1162 l-1162 1162 -413 2 c-226 0 -412 -2 -412 -5 1
-16 3738 -3740 3742 -3729 2 7 4 756 4 1665 -1 1184 2 1649 10 1642 6 -5 757
-755 1670 -1668 l1659 -1659 413 0 414 0 -29 30 c-15 16 -855 856 -1865 1866
-1011 1010 -1839 1842 -1842 1848 -3 8 462 11 1655 11 913 0 1660 2 1662 4 2
2 -973 979 -2165 2171 l-2168 2167 -1 -57z"/>
</g>
</svg>
