<svg width="58" height="58" viewBox="0 0 58 58" fill="none" xmlns="http://www.w3.org/2000/svg">
<g clip-path="url(#clip0_41_41)" filter="url(#filter0_d_41_41)">
<path d="M29 0C15.195 0 4 11.195 4 25C4 38.805 15.195 50 29 50C42.805 50 54 38.805 54 25C54 11.195 42.805 0 29 0ZM21.7353 37.793H15.6467V19.4752H21.7353V37.793ZM18.6912 16.9739H18.6515C16.6083 16.9739 15.2869 15.5674 15.2869 13.8096C15.2869 12.0121 16.6488 10.6445 18.7316 10.6445C20.8144 10.6445 22.0962 12.0121 22.1358 13.8096C22.1358 15.5674 20.8144 16.9739 18.6912 16.9739ZM43.6896 37.793H37.6018V27.9934C37.6018 25.5306 36.7202 23.851 34.5172 23.851C32.8353 23.851 31.8336 24.984 31.3933 26.0777C31.2324 26.469 31.1931 27.0161 31.1931 27.5635V37.793H25.1048C25.1048 37.793 25.1845 21.1937 25.1048 19.4752H31.1931V22.0688C32.0022 20.8206 33.4498 19.0453 36.6801 19.0453C40.6859 19.0453 43.6896 21.6633 43.6896 27.2896V37.793Z" fill="black"/>
</g>
<defs>
<filter id="filter0_d_41_41" x="0" y="0" width="58" height="58" filterUnits="userSpaceOnUse" color-interpolation-filters="sRGB">
<feFlood flood-opacity="0" result="BackgroundImageFix"/>
<feColorMatrix in="SourceAlpha" type="matrix" values="0 0 0 0 0 0 0 0 0 0 0 0 0 0 0 0 0 0 127 0" result="hardAlpha"/>
<feOffset dy="4"/>
<feGaussianBlur stdDeviation="2"/>
<feComposite in2="hardAlpha" operator="out"/>
<feColorMatrix type="matrix" values="0 0 0 0 0 0 0 0 0 0 0 0 0 0 0 0 0 0 0.25 0"/>
<feBlend mode="normal" in2="BackgroundImageFix" result="effect1_dropShadow_41_41"/>
<feBlend mode="normal" in="SourceGraphic" in2="effect1_dropShadow_41_41" result="shape"/>
</filter>
<clipPath id="clip0_41_41">
<rect width="50" height="50" fill="white" transform="translate(4)"/>
</clipPath>
</defs>
</svg>
