<svg width="40" height="40" viewBox="0 0 40 40" fill="none" xmlns="http://www.w3.org/2000/svg">
<g clip-path="url(#clip0_104_469)">
<path d="M16.3636 17.2727H12.7273V27.2727H16.3636V17.2727Z" fill="black"/>
<path d="M14.5455 16.3637C15.5496 16.3637 16.3637 15.5497 16.3637 14.5455C16.3637 13.5413 15.5496 12.7273 14.5455 12.7273C13.5413 12.7273 12.7273 13.5413 12.7273 14.5455C12.7273 15.5497 13.5413 16.3637 14.5455 16.3637Z" fill="black"/>
<path d="M36.3637 0H3.63633C1.62805 0 0 1.62805 0 3.63633V36.3636C0 38.372 1.62805 40 3.63633 40H36.3636C38.372 40 40 38.372 40 36.3637V3.63633C40 1.62805 38.372 0 36.3637 0ZM38.1818 36.3637C38.1818 37.3678 37.3677 38.1819 36.3636 38.1819H3.63633C2.63219 38.1819 1.81813 37.3678 1.81813 36.3637V3.63633C1.81813 2.63219 2.63219 1.81813 3.63633 1.81813H36.3636C37.3677 1.81813 38.1818 2.63219 38.1818 3.63633V36.3637Z" fill="black"/>
<path d="M24.8727 17.2727C22.1455 17.2727 21.8182 18.8909 21.8182 18.8909V17.2727H18.1819V27.2727H21.8182V21.8182C21.8182 21.8182 21.8182 20 23.3637 20C24.2727 20 24.5455 20.8182 24.5455 21.8182V27.2727H28.1818V21.8182C28.1818 18.9727 26.9455 17.2727 24.8727 17.2727Z" fill="black"/>
</g>
<defs>
<clipPath id="clip0_104_469">
<rect width="40" height="40" fill="white"/>
</clipPath>
</defs>
</svg>
