<svg width="30" height="30" viewBox="0 0 40 40" fill="none" xmlns="http://www.w3.org/2000/svg">
<g clip-path="url(#clip0_105_70)">
<path d="M16.3634 17.2727H12.7271V27.2727H16.3634V17.2727Z" fill="black"/>
<path d="M14.5453 16.3637C15.5494 16.3637 16.3635 15.5497 16.3635 14.5455C16.3635 13.5413 15.5494 12.7273 14.5453 12.7273C13.5411 12.7273 12.7271 13.5413 12.7271 14.5455C12.7271 15.5497 13.5411 16.3637 14.5453 16.3637Z" fill="black"/>
<path d="M36.3637 0H3.63633C1.62805 0 0 1.62805 0 3.63633V36.3636C0 38.372 1.62805 40 3.63633 40H36.3636C38.372 40 40 38.372 40 36.3637V3.63633C40 1.62805 38.372 0 36.3637 0ZM38.1818 36.3637C38.1818 37.3678 37.3677 38.1819 36.3636 38.1819H3.63633C2.63219 38.1819 1.81813 37.3678 1.81813 36.3637V3.63633C1.81813 2.63219 2.63219 1.81813 3.63633 1.81813H36.3636C37.3677 1.81813 38.1818 2.63219 38.1818 3.63633V36.3637Z" fill="black"/>
<path d="M24.8725 17.2727C22.1452 17.2727 21.818 18.8909 21.818 18.8909V17.2727H18.1816V27.2727H21.818V21.8182C21.818 21.8182 21.818 20 23.3634 20C24.2725 20 24.5452 20.8182 24.5452 21.8182V27.2727H28.1816V21.8182C28.1816 18.9727 26.9452 17.2727 24.8725 17.2727Z" fill="black"/>
</g>
<defs>
<clipPath id="clip0_105_70">
<rect width="40" height="40" fill="white"/>
</clipPath>
</defs>
</svg>
