<?xml version="1.0" encoding="UTF-8" standalone="no"?>
<!DOCTYPE svg PUBLIC "-//W3C//DTD SVG 1.1//EN" "http://www.w3.org/Graphics/SVG/1.1/DTD/svg11.dtd">
<svg width="100%" height="100%" viewBox="0 0 397 405" version="1.1" xmlns="http://www.w3.org/2000/svg" xmlns:xlink="http://www.w3.org/1999/xlink" xml:space="preserve" xmlns:serif="http://www.serif.com/" style="fill-rule:evenodd;clip-rule:evenodd;stroke-linejoin:round;stroke-miterlimit:2;">
    <g transform="matrix(1,0,0,1,-51.8685,-47.54)">
        <g transform="matrix(1,0,0,1,-834,-417)">
            <g transform="matrix(1,0,0,1,0,5.70399)">
                <g transform="matrix(1,0,0,1,750.668,-6.039)">
                    <path d="M531.464,869.795L489.989,869.795L322.983,702.79L322.983,652.657L439.856,652.657L293.627,506.429L293.627,464.875L510.766,682.013L343.682,682.013L531.464,869.795Z" style="fill-rule:nonzero;"/>
                </g>
                <g transform="matrix(1,0,0,1,750.668,-6.039)">
                    <path d="M322.983,577.261L322.983,869.795L135.201,682.013L176.677,682.013L293.627,798.885L293.627,547.984L322.983,577.261Z" style="fill-rule:nonzero;"/>
                </g>
            </g>
        </g>
    </g>
</svg>
