<svg width="20" height="20" viewBox="0 0 20 20" fill="none" xmlns="http://www.w3.org/2000/svg">
<path fill-rule="evenodd" clip-rule="evenodd" d="M5.83332 6.52425V13.4759C4.86249 13.8192 4.16666 14.7459 4.16666 15.8334C4.16666 17.2134 5.28666 18.3334 6.66666 18.3334C8.04666 18.3334 9.16666 17.2134 9.16666 15.8334C9.16666 14.7459 8.47082 13.8192 7.49999 13.4759V12.5001H10.8333C12.6742 12.5001 14.1667 11.0076 14.1667 9.16675V8.19092C15.1375 7.84758 15.8333 6.92092 15.8333 5.83342C15.8333 4.45341 14.7133 3.33341 13.3333 3.33341C11.9533 3.33341 10.8333 4.45341 10.8333 5.83342C10.8333 6.92092 11.5292 7.84758 12.5 8.19092V9.16675C12.5 10.0876 11.7542 10.8334 10.8333 10.8334H7.49999V6.52425C8.47082 6.18092 9.16666 5.25425 9.16666 4.16675C9.16666 2.78675 8.04666 1.66675 6.66666 1.66675C5.28666 1.66675 4.16666 2.78675 4.16666 4.16675C4.16666 5.25425 4.86249 6.18092 5.83332 6.52425Z" fill="black"/>
</svg>
