<svg width="20" height="20" viewBox="0 0 20 20" fill="none" xmlns="http://www.w3.org/2000/svg">
<g clip-path="url(#clip0_104_484)">
<path d="M4.47646 19.5956C4.25733 19.5956 4.03974 19.5273 3.85403 19.393C3.50811 19.1423 3.34651 18.7114 3.44066 18.2956L4.72732 12.6278L0.363801 8.80115C0.0430532 8.52114 -0.079478 8.07771 0.0522087 7.67197C0.183895 7.26699 0.542181 6.98027 0.966386 6.94105L6.73985 6.4169L9.02247 1.07512C9.19078 0.682654 9.57409 0.429199 9.99997 0.429199C10.4259 0.429199 10.8092 0.682654 10.9775 1.0742L13.2601 6.4169L19.0326 6.94105C19.4578 6.97935 19.8161 7.26699 19.9477 7.67197C20.0794 8.07695 19.9577 8.52114 19.6369 8.80115L15.2734 12.6271L16.56 18.2946C16.6544 18.7114 16.4926 19.1423 16.1468 19.3922C15.8018 19.6422 15.3418 19.6614 14.9784 19.4431L9.99997 16.468L5.02151 19.4447C4.8532 19.5447 4.66567 19.5956 4.47646 19.5956ZM9.99997 15.1864C10.1892 15.1864 10.3766 15.2372 10.545 15.3371L15.2435 18.1472L14.0292 12.7978C13.9425 12.4171 14.0717 12.0196 14.3659 11.762L18.4861 8.14867L13.035 7.65366C12.6426 7.6178 12.305 7.37106 12.1517 7.00942L9.99997 1.96839L7.84568 7.01018C7.69401 7.36938 7.35647 7.61612 6.96492 7.65198L1.51312 8.14699L5.6331 11.7604C5.92821 12.0187 6.05731 12.4154 5.96987 12.7971L4.75646 18.1463L9.45492 15.3371C9.62322 15.2372 9.81076 15.1864 9.99997 15.1864ZM6.69575 6.52021C6.69575 6.52021 6.69575 6.52112 6.69484 6.52188L6.69575 6.52021ZM13.3025 6.51776L13.3034 6.51944C13.3034 6.51853 13.3034 6.51853 13.3025 6.51776Z" fill="black"/>
</g>
<defs>
<clipPath id="clip0_104_484">
<rect width="20" height="20" fill="white"/>
</clipPath>
</defs>
</svg>
